<svg viewBox="0 0 512 512" xmlns="http://www.w3.org/2000/svg"><rect fill="#262626" height="512" rx="80" width="512"/><g fill="#ff7fc7"><path d="m117.17 425.38c-12.39 0-22.35-3.76-29.87-11.3-7.53-7.52-11.3-17.49-11.3-29.87v-112.78s31.67-.16 31.67-.16v112.94c0 3.8 1.16 6.86 3.48 9.18s5.38 3.48 9.18 3.48h22.49s0 28.5 0 28.5h-25.65z"/><path d="m218.16 425.38h-63.49v-28.71h20.14v-58.9h-16.38v-28.5h45.93v87.4h13.8zm-31.75-131.94c-4.79 0-8.62-1.37-11.51-4.12-2.89-2.74-4.33-6.3-4.33-10.66s1.44-8.09 4.33-10.77c2.88-2.67 6.72-4.01 11.51-4.01h4.22c4.78 0 8.62 1.34 11.51 4.01 2.88 2.68 4.33 6.26 4.33 10.77s-1.44 8.09-4.33 10.77-6.79 4.01-11.72 4.01z"/><path d="m260.64 425.38h-31.67v-154.11h31.67v81.91h15.62l24.28-43.91h35.26l-32.3 56.79 32.93 59.32h-35.89l-24.49-45.6h-15.41z"/><path d="m436 374.71h-71.14v6.34c0 14.78 7.04 22.16 21.11 22.16 4.92 0 8.9-.84 11.93-2.53s5.03-4.01 6.02-6.96h31.03c-2.53 10.13-8.27 18.3-17.2 24.49-8.94 6.19-19.67 9.29-32.2 9.29-10.28 0-19.25-1.93-26.92-5.8s-13.58-9.29-17.73-16.26c-4.15-6.96-6.23-15.09-6.23-24.38v-27.44c0-9.29 2.07-17.42 6.23-24.38 4.15-6.97 10.06-12.38 17.73-16.26 7.67-3.87 16.64-5.81 26.92-5.81s19 1.94 26.6 5.81 13.47 9.29 17.63 16.26c4.15 6.97 6.23 15.09 6.23 24.38v21.11zm-71.14-17.94 40.96-.42v-3.17c0-14.78-6.76-22.17-20.27-22.17-6.9 0-12.07 1.94-15.52 5.81s-5.17 9.47-5.17 16.78z"/></g><path d="m199.8 248.12c-9.43 0-17.77-1.48-25.02-4.43s-12.88-7.18-16.89-12.67-6.02-11.75-6.02-18.79h31.67c0 3.38 1.48 6.09 4.43 8.13s6.89 3.06 11.82 3.06h9.29c5.77 0 10.17-1.06 13.19-3.17s4.54-5.07 4.54-8.86c0-3.52-1.34-6.23-4.01-8.13-2.68-1.9-6.83-3.2-12.46-3.91l-13.51-1.69c-14.64-1.83-25.23-5.38-31.77-10.66s-9.82-13.19-9.82-23.75c0-11.4 3.91-20.16 11.72-26.28s19.1-9.18 33.88-9.18h8.02c14.07 0 25.37 3.1 33.88 9.29s12.77 14.5 12.77 24.91h-31.67c0-2.81-1.37-5.1-4.12-6.86-2.74-1.76-6.37-2.64-10.87-2.64h-8.02c-5.21 0-9.01.88-11.4 2.64-2.4 1.76-3.59 4.4-3.59 7.91 0 3.24 1.06 5.7 3.17 7.39s5.63 2.89 10.55 3.59l14.57 1.9c14.92 1.97 25.86 5.7 32.83 11.19s10.45 13.59 10.45 24.28c0 11.82-4.12 20.9-12.35 27.23s-20.23 9.5-35.99 9.5h-9.29z" fill="#e5ee8c"/><path d="m254.72 246.01 40.11-60.17-37.37-55.95h35.26l14.36 23.22c1.97 3.24 3.8 7.11 5.49 11.61 1.83-4.5 3.66-8.37 5.49-11.61l14.36-23.22h35.26l-37.16 55.95 39.9 60.17h-35.26l-16.89-27.44c-1.97-3.24-3.87-7.11-5.7-11.61-1.69 4.51-3.52 8.38-5.49 11.61l-17.1 27.44z" fill="#e5ee8c"/><path d="m123.66 114.06h4.01c4.92 0 8.83-1.34 11.72-4.01 2.88-2.67 4.33-6.26 4.33-10.77s-1.45-8.09-4.33-10.77c-2.89-2.67-6.72-4.01-11.51-4.01h-4.22c-4.79 0-8.62 1.34-11.51 4.01-2.89 2.68-4.33 6.26-4.33 10.77s1.44 7.92 4.33 10.66c2.88 2.75 6.72 4.12 11.51 4.12z" fill="#e5ee8c"/><path d="m95.67 129.9v29.56h14.27v57.59c0 3.8-1.16 6.86-3.48 9.18s-5.38 3.48-9.18 3.48h-21.27s0 29.55 0 29.55h24.43c12.39 0 22.35-3.76 29.87-11.3 7.53-7.52 11.3-19.19 11.3-31.58v-86.49h-45.93z" fill="#e5ee8c"/></svg>