<svg viewBox="0 0 436 88" xmlns="http://www.w3.org/2000/svg"><rect fill="#e5ee8c" height="14" rx="2.5" width="16" x="40" y="2"/><rect fill="#ff7fc7" height="60" rx="2.5" width="16" x="268" y="26"/><rect fill="#ff7fc7" height="14" rx="2.5" width="16" x="268" y="2"/><g fill="#e5ee8c"><path d="m134 37.5v-9c0-1.38-1.12-2.5-2.5-2.5h-55c-1.38 0-2.5 1.12-2.5 2.5v32c0 1.38 1.12 2.5 2.5 2.5h39.5c1.1 0 2 .9 2 2v5c0 1.1-.9 2-2 2h-39.5c-1.38 0-2.5 1.12-2.5 2.5v9c0 1.38 1.12 2.5 2.5 2.5h55c1.38 0 2.5-1.12 2.5-2.5v-32c0-1.38-1.12-2.5-2.5-2.5h-39.5c-1.1 0-2-.9-2-2v-5c0-1.1.9-2 2-2h39.5c1.38 0 2.5-1.12 2.5-2.5z"/><path d="m215.35 26h-17.94c-.88 0-1.69.46-2.14 1.21l-12.41 20.69c-.39.65-1.33.65-1.71 0l-12.41-20.69c-.45-.75-1.27-1.21-2.14-1.21h-17.94c-1.17 0-1.89 1.27-1.29 2.27l16.17 26.96c.29.48.29 1.07 0 1.54l-16.17 26.96c-.6 1 .12 2.27 1.29 2.27h17.94c.88 0 1.69-.46 2.14-1.21l12.41-20.69c.39-.65 1.33-.65 1.71 0l12.41 20.69c.45.75 1.27 1.21 2.14 1.21h17.94c1.17 0 1.89-1.27 1.29-2.27l-16.17-26.96c-.29-.48-.29-1.07 0-1.54l16.17-26.96c.6-1-.12-2.27-1.29-2.27z"/><path d="m40 28.5v41.5c0 1.1-.9 2-2 2h-18c-1.1 0-2-.9-2-2v-9.5c0-1.38-1.12-2.5-2.5-2.5h-11c-1.38 0-2.5 1.12-2.5 2.5v23c0 1.38 1.12 2.5 2.5 2.5h49c1.38 0 2.5-1.12 2.5-2.5v-55c0-1.38-1.12-2.5-2.5-2.5h-11c-1.38 0-2.5 1.12-2.5 2.5z"/></g><rect fill="#ff7fc7" height="84" rx="2.5" transform="matrix(-1 0 0 -1 480 88)" width="16" x="232" y="2"/><path d="m361.35 26h-17.94c-.88 0-1.69.46-2.14 1.21l-12.63 21.06c-.27.45-.76.73-1.29.73h-7.35c-1.1 0-2-.9-2-2v-42.5c0-1.38-1.12-2.5-2.5-2.5h-11c-1.38 0-2.5 1.12-2.5 2.5v79c0 1.38 1.12 2.5 2.5 2.5h11c1.38 0 2.5-1.12 2.5-2.5v-18.5c0-1.1.9-2 2-2h7.35c.53 0 1.02.28 1.29.73l12.63 21.06c.45.75 1.27 1.21 2.14 1.21h17.94c1.17 0 1.89-1.27 1.29-2.27l-16.17-26.96c-.29-.48-.29-1.07 0-1.54l16.17-26.96c.6-1-.12-2.27-1.29-2.27z" fill="#ff7fc7"/><path d="m374 28.5v55c0 1.38 1.12 2.5 2.5 2.5h55c1.38 0 2.5-1.12 2.5-2.5v-9c0-1.38-1.12-2.5-2.5-2.5h-39.5c-1.1 0-2-.9-2-2v-5c0-1.1.9-2 2-2h39.5c1.38 0 2.5-1.12 2.5-2.5v-32c0-1.38-1.12-2.5-2.5-2.5h-55c-1.38 0-2.5 1.12-2.5 2.5zm42 20.5h-24c-1.1 0-2-.9-2-2v-5c0-1.1.9-2 2-2h24c1.1 0 2 .9 2 2v5c0 1.1-.9 2-2 2z" fill="#ff7fc7"/></svg>