<svg viewBox="0 0 400 107" xmlns="http://www.w3.org/2000/svg"><path d="m75.52 98.78c-5.6 0-10.55-.88-14.86-2.63s-7.65-4.26-10.03-7.52-3.57-6.98-3.57-11.16h18.81c0 2.01.88 3.61 2.63 4.83 1.75 1.21 4.09 1.82 7.02 1.82h5.52c3.43 0 6.04-.63 7.84-1.88s2.69-3.01 2.69-5.26c0-2.09-.79-3.7-2.38-4.83s-4.06-1.9-7.4-2.32l-8.02-1c-8.69-1.08-14.98-3.2-18.87-6.33s-5.83-7.84-5.83-14.11c0-6.77 2.32-11.97 6.96-15.61s11.35-5.45 20.12-5.45h4.76c8.36 0 15.06 1.84 20.12 5.52s7.58 8.61 7.58 14.79h-18.81c0-1.67-.81-3.03-2.45-4.07-1.63-1.05-3.78-1.57-6.46-1.57h-4.76c-3.09 0-5.35.52-6.77 1.57-1.42 1.04-2.13 2.61-2.13 4.7 0 1.92.63 3.38 1.88 4.39s3.34 1.72 6.27 2.13l8.65 1.13c8.86 1.17 15.36 3.39 19.5 6.65s6.21 8.07 6.21 14.42c0 7.02-2.45 12.41-7.33 16.17-4.89 3.76-12.02 5.64-21.38 5.64h-5.52z" fill="#e5ee8c"/><path d="m108.14 97.52 23.82-35.73-22.19-33.23h20.94l8.53 13.79c1.17 1.92 2.26 4.22 3.26 6.89 1.09-2.67 2.17-4.97 3.26-6.89l8.53-13.79h20.94l-22.07 33.23 23.69 35.73h-20.94l-10.03-16.3c-1.17-1.92-2.3-4.22-3.39-6.9-1 2.68-2.09 4.97-3.26 6.9l-10.15 16.3z" fill="#e5ee8c"/><g fill="#ff7fc7"><path d="m208.65 97.52c-7.36 0-13.27-2.24-17.74-6.71s-6.71-10.38-6.71-17.74v-66.97s18.81-.1 18.81-.1v67.07c0 2.26.69 4.08 2.07 5.45 1.38 1.38 3.2 2.07 5.45 2.07h13.36s0 16.93 0 16.93z"/><path d="m268.63 97.52h-37.71v-17.05h11.96v-34.98h-9.73v-16.93h27.28v51.91h8.2zm-18.85-78.36c-2.84 0-5.12-.81-6.83-2.45-1.71-1.63-2.57-3.74-2.57-6.33s.86-4.81 2.57-6.39c1.71-1.59 3.99-2.38 6.83-2.38h2.51c2.84 0 5.12.79 6.83 2.38s2.57 3.72 2.57 6.39-.86 4.81-2.57 6.39c-1.71 1.59-4.03 2.38-6.96 2.38h-2.38z"/><path d="m293.86 97.52h-18.81v-91.52h18.81v48.65h9.28l14.42-26.08h20.94l-19.18 33.73 19.56 35.23h-21.31l-14.54-27.08h-9.15v27.08z"/><path d="m398 67.43h-42.25v3.76c0 8.78 4.18 13.16 12.54 13.16 2.92 0 5.29-.5 7.08-1.5 1.8-1 2.99-2.38 3.57-4.14h18.43c-1.5 6.02-4.91 10.87-10.22 14.54-5.31 3.68-11.68 5.52-19.12 5.52-6.1 0-11.43-1.15-15.99-3.45s-8.07-5.52-10.53-9.66c-2.47-4.14-3.7-8.96-3.7-14.48v-16.3c0-5.52 1.23-10.34 3.7-14.48 2.46-4.14 5.97-7.35 10.53-9.65s9.88-3.45 15.99-3.45 11.28 1.15 15.8 3.45c4.51 2.3 8 5.52 10.47 9.65 2.47 4.14 3.7 8.96 3.7 14.48v12.54zm-42.25-10.66 24.32-.25v-1.88c0-8.78-4.01-13.17-12.04-13.17-4.1 0-7.17 1.15-9.21 3.45-2.05 2.3-3.07 5.62-3.07 9.97z"/></g><path d="m30.3 19.16h2.38c2.92 0 5.24-.79 6.96-2.38 1.71-1.59 2.57-3.72 2.57-6.39s-.86-4.81-2.57-6.39c-1.71-1.59-3.99-2.38-6.83-2.38h-2.51c-2.84 0-5.12.79-6.83 2.38s-2.57 3.72-2.57 6.39.86 4.7 2.57 6.33 3.99 2.45 6.83 2.45z" fill="#e5ee8c"/><path d="m13.68 28.57v17.55h8.47v34.2c0 2.26-.69 4.08-2.07 5.45-1.38 1.38-3.2 2.07-5.45 2.07h-12.63s0 17.55 0 17.55h14.51c7.36 0 13.27-2.24 17.74-6.71s6.71-11.4 6.71-18.75v-51.36z" fill="#e5ee8c"/></svg>