<svg viewBox="0 0 512 512" xmlns="http://www.w3.org/2000/svg"><rect fill="#262626" height="512" rx="80" width="512"/><g fill="#e5ee8c"><rect height="57.04" rx="10.19" width="65.19" x="287.81" y="76.89"/><path d="m287.81 184.85v169.07c0 4.5-3.65 8.15-8.15 8.15h-73.33c-4.5 0-8.15-3.65-8.15-8.15v-38.7c0-5.63-4.56-10.19-10.19-10.19h-44.81c-5.63 0-10.19 4.56-10.19 10.19v93.7c0 5.63 4.56 10.19 10.19 10.19h199.63c5.63 0 10.19-4.56 10.19-10.19v-224.07c0-5.63-4.56-10.19-10.19-10.19h-44.81c-5.63 0-10.19 4.56-10.19 10.19z"/></g></svg>